<?xml version="1.0" encoding="iso-8859-1"?>
<!-- Uploaded to: SVG Repo, www.svgrepo.com, Generator: SVG Repo Mixer Tools -->
<!DOCTYPE svg PUBLIC "-//W3C//DTD SVG 1.1//EN" "http://www.w3.org/Graphics/SVG/1.1/DTD/svg11.dtd">
<svg fill="#000000" version="1.1" id="Capa_1" xmlns="http://www.w3.org/2000/svg" xmlns:xlink="http://www.w3.org/1999/xlink" 
	 width="800px" height="800px" viewBox="0 0 587.91 587.91"
	 xml:space="preserve">
<g>
	<g>
		<g>
			<path d="M86.451,501.46c26.937,26.936,58.315,48.088,93.265,62.871c36.207,15.314,74.642,23.078,114.239,23.078
				c39.598,0,78.033-7.766,114.238-23.078c34.949-14.783,66.33-35.936,93.266-62.871c26.938-26.938,48.09-58.316,62.873-93.266
				c15.312-36.207,23.078-74.643,23.078-114.239c0-39.597-7.766-78.033-23.078-114.239c-14.783-34.949-35.938-66.328-62.873-93.264
				s-58.316-48.09-93.266-62.872C371.986,8.265,333.551,0.501,293.955,0.501c-39.597,0-78.033,7.765-114.239,23.079
				c-34.949,14.782-66.328,35.936-93.265,62.872c-26.937,26.937-48.089,58.315-62.872,93.265C8.265,215.922,0.5,254.358,0.5,293.956
				c0,39.598,7.765,78.032,23.079,114.239C38.361,443.144,59.515,474.522,86.451,501.46z M293.955,43.341
				c138.411,0,250.614,112.204,250.614,250.615S432.365,544.569,293.955,544.569S43.34,432.366,43.34,293.956
				S155.544,43.341,293.955,43.341z"/>
			<path d="M293.955,587.909c-39.667,0-78.167-7.778-114.434-23.117c-35.01-14.81-66.443-35.998-93.424-62.979
				c-26.982-26.983-48.172-58.416-62.979-93.425C7.778,372.119,0,333.618,0,293.956c0-39.664,7.778-78.165,23.118-114.434
				c14.809-35.011,35.998-66.443,62.979-93.424c26.982-26.982,58.415-48.171,93.424-62.979
				C215.79,7.779,254.291,0.001,293.955,0.001c39.665,0,78.166,7.778,114.433,23.118c35.013,14.809,66.444,35.998,93.425,62.979
				c26.982,26.983,48.172,58.416,62.979,93.423c15.34,36.271,23.118,74.772,23.118,114.434c0,39.661-7.778,78.163-23.117,114.434
				c-14.81,35.011-35.999,66.443-62.98,93.425c-26.979,26.979-58.411,48.168-93.425,62.979
				C372.119,580.131,333.618,587.909,293.955,587.909z M293.955,1.001c-39.529,0-77.899,7.751-114.044,23.039
				c-34.89,14.757-66.215,35.875-93.106,62.765c-26.89,26.89-48.007,58.215-62.765,93.106C8.751,216.056,1,254.426,1,293.956
				C1,333.483,8.751,371.854,24.039,408c14.757,34.889,35.875,66.215,62.766,93.106c26.89,26.889,58.215,48.006,93.106,62.765
				c36.142,15.287,74.512,23.038,114.044,23.038c39.528,0,77.898-7.751,114.044-23.039c34.894-14.759,66.219-35.876,93.106-62.764
				c26.89-26.89,48.008-58.216,62.766-93.106c15.288-36.147,23.039-74.518,23.039-114.045s-7.751-77.897-23.039-114.044
				c-14.757-34.888-35.874-66.213-62.766-93.105c-26.889-26.89-58.214-48.007-93.106-62.765
				C371.854,8.752,333.485,1.001,293.955,1.001z M293.955,545.069c-67.075,0-130.136-26.12-177.565-73.55
				C68.96,424.091,42.84,361.03,42.84,293.956c0-67.075,26.121-130.136,73.55-177.565s110.49-73.55,177.565-73.55
				c67.075,0,130.135,26.121,177.564,73.55c47.43,47.429,73.55,110.49,73.55,177.565c0,67.075-26.12,130.135-73.55,177.564
				C424.09,518.949,361.029,545.069,293.955,545.069z M293.955,43.841c-66.808,0-129.617,26.017-176.858,73.257
				c-47.24,47.241-73.257,110.05-73.257,176.858s26.017,129.617,73.257,176.857s110.05,73.257,176.858,73.257
				s129.617-26.017,176.857-73.257c47.24-47.239,73.257-110.049,73.257-176.857s-26.017-129.617-73.257-176.858
				C423.571,69.857,360.763,43.841,293.955,43.841z"/>
		</g>
		<g>
			<path d="M225.211,424.009c10.386,8.51,23.445,13.197,36.77,13.197c14.938,0,29.16-5.656,40.048-15.926
				c5.646-5.324,10.094-11.613,13.221-18.688c3.283-7.428,4.947-15.354,4.947-23.557v-6.682h113.805
				c30.604,0,55.502-24.898,55.502-55.5v-45.705c0-30.603-24.898-55.5-55.502-55.5H320.197v-5.69c0-8.2-1.662-16.122-4.943-23.547
				c-3.125-7.074-7.57-13.361-13.213-18.686c-10.888-10.276-25.114-15.936-40.057-15.936c0,0-0.004,0-0.005,0
				c-13.208,0.001-26.176,4.615-36.517,12.992L118.58,251.359c-0.65,0.528-1.286,1.074-1.904,1.639
				c-11.502,10.491-18.099,25.437-18.099,41.003c0,15.568,6.597,30.514,18.099,41.004c0.56,0.512,1.133,1.008,1.72,1.488
				L225.211,424.009z M145.544,284.648l106.883-86.578c2.929-2.372,6.281-3.44,9.555-3.44c7.91,0,15.375,6.225,15.375,15.329v35.87
				c0,6.992,5.668,12.661,12.66,12.661h143.984c6.992,0,12.662,5.667,12.662,12.66v45.705c0,6.992-5.67,12.66-12.662,12.66H290.018
				c-6.992,0-12.661,5.668-12.661,12.66v36.863c0,9.109-7.47,15.328-15.376,15.328c-3.302,0-6.677-1.084-9.62-3.492l-106.817-87.518
				C140.04,298.333,140.04,289.669,145.544,284.648z"/>
			<path d="M261.981,437.706c-13.44,0-26.611-4.728-37.087-13.311L118.078,336.88c-0.593-0.486-1.173-0.988-1.74-1.506
				c-11.605-10.585-18.261-25.664-18.261-41.373c0-15.708,6.656-30.788,18.262-41.373c0.611-0.559,1.259-1.116,1.926-1.657
				l106.883-86.578c10.43-8.448,23.51-13.102,36.832-13.103c15.076,0,29.423,5.708,40.404,16.072
				c5.691,5.371,10.175,11.712,13.327,18.848c3.309,7.487,4.986,15.477,4.986,23.749v5.19h113.305c30.88,0,56.002,25.122,56.002,56
				v45.705c0,30.879-25.122,56-56.002,56H320.697v6.182c0,8.274-1.679,16.268-4.99,23.759c-3.155,7.14-7.643,13.481-13.335,18.85
				C291.391,432.002,277.046,437.706,261.981,437.706z M261.984,152.29c-13.098,0.001-25.955,4.576-36.208,12.88l-106.882,86.578
				c-0.651,0.528-1.285,1.073-1.882,1.619c-11.399,10.396-17.936,25.207-17.936,40.634c0,15.428,6.537,30.239,17.936,40.635
				c0.554,0.506,1.12,0.996,1.7,1.471l106.816,87.516c10.298,8.438,23.244,13.084,36.453,13.084c14.809,0,28.91-5.607,39.706-15.789
				c5.595-5.276,10.005-11.509,13.106-18.526c3.254-7.362,4.904-15.221,4.904-23.354v-7.182h114.305
				c30.328,0,55.002-24.673,55.002-55v-45.705c0-30.327-24.674-55-55.002-55H319.697v-6.19c0-8.132-1.648-15.986-4.9-23.345
				c-3.099-7.013-7.506-13.246-13.099-18.524C290.903,157.901,276.799,152.29,261.984,152.29z M261.981,394.866
				c-3.619,0-7.055-1.247-9.937-3.605l-106.817-87.518c-2.748-2.507-4.312-6.052-4.312-9.744c0-3.69,1.565-7.233,4.292-9.721
				l106.906-86.597c2.868-2.323,6.281-3.551,9.87-3.551l0,0l0,0c4.034,0,8.042,1.599,10.997,4.387
				c3.146,2.969,4.878,7.032,4.878,11.442v35.87c0,6.706,5.455,12.161,12.16,12.161h143.984c7.258,0,13.162,5.904,13.162,13.16
				v45.705c0,7.257-5.904,13.16-13.162,13.16H290.018c-6.706,0-12.161,5.455-12.161,12.16v36.863
				C277.857,386.65,271.788,394.866,261.981,394.866z M261.983,195.13c-3.356,0-6.552,1.151-9.24,3.329l-106.883,86.578
				c-2.498,2.279-3.943,5.552-3.943,8.962c0,3.412,1.445,6.687,3.965,8.988l106.797,87.5c2.701,2.21,5.917,3.379,9.303,3.379
				c7.154,0,14.876-5.669,14.876-14.828v-36.863c0-7.257,5.904-13.16,13.161-13.16h143.984c6.706,0,12.162-5.455,12.162-12.16
				V271.15c0-6.705-5.456-12.16-12.162-12.16H290.018c-7.256,0-13.16-5.904-13.16-13.161v-35.87c0-4.132-1.621-7.937-4.564-10.715
				C269.523,196.629,265.765,195.13,261.983,195.13L261.983,195.13z"/>
		</g>
	</g>
</g>
</svg>